<?xml version="1.0" encoding="utf-8"?>
<!-- Svg Vector Icons : http://www.onlinewebfonts.com/icon -->
<!DOCTYPE svg PUBLIC "-//W3C//DTD SVG 1.1//EN" "http://www.w3.org/Graphics/SVG/1.1/DTD/svg11.dtd">
<svg version="1.1" xmlns="http://www.w3.org/2000/svg" xmlns:xlink="http://www.w3.org/1999/xlink" x="0px" y="0px" viewBox="0 0 1000 1000" enable-background="new 0 0 1000 1000" xml:space="preserve">
<metadata> Svg Vector Icons : http://www.onlinewebfonts.com/icon </metadata>
<g><path d="M366.1,260.5c0,14.9-5.7,29.7-17.1,41.1l-198.8,198l198.8,198.8c22.7,22.7,22.7,59.4,0,82.2c-22.7,22.7-59.4,22.7-82.1,0L27,540.6c-10.9-10.9-17-25.6-17-41c0,0,0,0,0-0.1c0-15.4,6.1-30.2,17.1-41.1L267,219.4c22.7-22.6,59.4-22.6,82.1,0.1C360.4,230.8,366.1,245.6,366.1,260.5z"/><path d="M132.3,500c0-32.3,27.1-58.5,60.6-58.5h736.5c33.5,0,60.6,26.2,60.6,58.5l0,0c0,32.3-27.1,58.5-60.6,58.5H192.9C159.4,558.5,132.3,532.3,132.3,500L132.3,500z"/></g>
</svg>